<?xml version="1.0" encoding="utf-8"?>
<!-- Uploaded to: SVG Repo, www.svgrepo.com, Generator: SVG Repo Mixer Tools -->
<svg fill="#000000" width="800px" height="800px" viewBox="-5.5 0 32 32" version="1.1" xmlns="http://www.w3.org/2000/svg">
<title>video-camera</title>
<path d="M18.76 23.3c-0.2 0-0.36-0.080-0.52-0.2l-3.84-3.040c0 1.16-0.96 2.080-2.080 2.080h-10.24c-1.16 0-2.080-0.96-2.080-2.080v-8.12c0-1.16 0.96-2.080 2.080-2.080h10.2c1.16 0 2.080 0.96 2.080 2.080v0l3.84-3.040c0.16-0.12 0.32-0.2 0.52-0.2 1.2 0 2.2 1 2.2 2.2v10.2c0.040 1.24-0.96 2.2-2.16 2.2zM13.56 17.5c0.2 0 0.36 0.080 0.52 0.2l4.92 3.88c0.16-0.080 0.28-0.24 0.28-0.44v-10.2c0-0.2-0.12-0.36-0.28-0.44l-4.92 3.88c-0.24 0.2-0.6 0.24-0.88 0.080s-0.48-0.44-0.48-0.76v-1.76c0-0.24-0.2-0.4-0.4-0.4h-10.24c-0.24 0-0.4 0.2-0.4 0.4v8.16c0 0.24 0.2 0.4 0.4 0.4h10.2c0.24 0 0.4-0.2 0.4-0.4v-1.76c0-0.32 0.2-0.6 0.48-0.76 0.16-0.040 0.28-0.080 0.4-0.080z"></path>
</svg>